<svg id="Layer_1" xmlns="http://www.w3.org/2000/svg" viewBox="0 0 157.88 187.12"><defs><style>.cls-2{fill:#2865dd;fill-rule:evenodd}</style></defs><path d="M55.69 53.54c-5.33 79.33 80.67-9.33 92.77 24.46 8.59 23.99-12.34 28.55-25.22 31.46-6.76 1.53-13.64 1.8-19.43 6.14-9.55 7.17-2.95 19.64-6.12 29.27-14.11 42.84-90.8 53.63-94.67 6-2-24.67.88-45.48 9.73-66.62 7.78-18.58 10.3-41.33 35.6-35.38" fill="#d9e7ff"/><g id="F6qFvb"><path class="cls-2" d="M64.46 81.72c-.28-6.72-.58-12.81-.79-18.89-.34-9.95-4.26-17.72-13.59-22.05-10.35-4.8-23.32-.98-28.45 9.23C14.25 64.71 7.6 79.79.84 94.79c-1.93 4.28-.36 8.51 3.23 9.72 4.24 1.44 7.01-.51 8.77-4.37C19.13 86.37 25.4 72.6 31.77 58.87c2.84-6.12 7.12-8.13 12.3-6.2 4.59 1.72 6.06 5.38 6.26 9.82.38 8.31.74 16.63 1.04 24.94.3 8.45 3.73 10.99 11.89 8.55 20.86-6.23 41.66-12.63 62.58-18.67 3.5-1.01 7.66-1.4 11.12-.52 5.16 1.31 7.81 6.3 7.57 11.62-.24 5.24-3.25 9.19-8.75 10.88-12.23 3.77-24.5 7.37-36.76 11.05-8.34 2.5-9.36 4.25-7.52 12.46 3.57 15.96-1.41 28.74-14.41 38.54-15.59 11.75-32.95 14.84-51.82 10.68-4.98-1.1-8.9.98-9.75 5.12-.72 3.51 2.06 6.62 6.72 7.72 22.53 5.33 43.32 1.1 62.08-12.13 15.93-11.23 23.27-26.91 21.21-46.47-.38-3.6.86-4.61 3.83-5.45 10.06-2.84 20.17-5.59 30.08-8.92 17.84-5.99 23.93-25.04 12.98-39.72-5.39-7.22-16.23-11.28-24.91-8.81-18.84 5.36-37.62 10.97-56.42 16.48-1.87.55-3.76 1.06-6.62 1.86ZM127.34 33.73c-.17 6.17 4.32 9.42 8.76 7.47 3.33-1.46 6.53-3.27 9.59-5.24 3.25-2.09 4.13-5.31 2.26-8.65-1.85-3.3-4.93-4.37-8.5-2.61-2.97 1.46-6.02 2.89-8.69 4.82-1.71 1.23-3.12 2.12-3.44 4.2ZM115.64 7.3c0-3.99-2.62-7.35-6.27-7.29-4.09.07-6.38 2.48-6.95 6.46-.42 2.95-.77 5.92-.93 8.9-.22 4.06 2.67 7.44 6.35 7.52 4.3.09 6.27-2.51 6.82-6.42.41-2.95.64-5.93.98-9.16ZM64.83 22.23c.22 3.5 8.13 12.78 11.56 13.56 4.78 1.08 9.66-3.75 7.36-7.92-2.4-4.35-5.89-8.45-9.8-11.51-3.8-2.98-9.43 1.01-9.12 5.87Z"/></g></svg>