<svg xmlns="http://www.w3.org/2000/svg" xml:space="preserve" viewBox="0 0 190 190"><path d="M71.754 54.979c-5.333 79.333 80.667-9.333 92.77 24.461 8.591 23.988-12.337 28.552-25.218 31.465-6.76 1.529-13.643 1.796-19.43 6.141-9.547 7.17-2.951 19.636-6.122 29.267-14.105 42.842-90.804 53.631-94.666 6-2-24.666.882-45.479 9.733-66.618 7.779-18.58 10.303-41.327 35.6-35.382" fill="#d9e7ff"/><path d="M79.733 64.259c-.343-9.947-4.263-17.724-13.593-22.047-10.354-4.797-23.322-.98-28.453 9.23-7.385 14.7-14.029 29.777-20.793 44.781-1.93 4.28-.363 8.508 3.227 9.725 4.239 1.438 7.007-.51 8.77-4.369 6.287-13.767 12.564-27.539 18.934-41.268 2.838-6.115 7.121-8.133 12.297-6.197 4.593 1.718 6.058 5.379 6.264 9.82.385 8.312.742 16.626 1.042 24.941.304 8.448 3.733 10.99 11.886 8.555 20.855-6.233 41.662-12.635 62.575-18.668 3.501-1.01 7.659-1.396 11.118-.518 5.165 1.313 7.814 6.303 7.568 11.617-.244 5.243-3.248 9.191-8.746 10.885-12.229 3.766-24.504 7.374-36.759 11.051-8.337 2.502-9.36 4.252-7.524 12.463 3.568 15.964-1.41 28.74-14.41 38.535-15.594 11.75-32.951 14.836-51.816 10.682-4.977-1.097-8.902.984-9.754 5.123-.723 3.51 2.06 6.617 6.721 7.721 22.533 5.33 43.32 1.096 62.082-12.132 15.934-11.233 23.271-26.912 21.213-46.47-.379-3.599.855-4.609 3.834-5.452 10.062-2.843 20.168-5.591 30.075-8.919 17.84-5.99 23.935-25.039 12.978-39.721-5.388-7.221-16.23-11.279-24.906-8.813-18.845 5.358-37.617 10.974-56.42 16.478-1.873.549-3.756 1.058-6.619 1.861-.286-6.718-.581-12.805-.791-18.894zm72.435-21.615c3.326-1.461 6.531-3.274 9.592-5.238 3.251-2.086 4.127-5.312 2.265-8.646-1.847-3.304-4.927-4.367-8.497-2.607-2.971 1.465-6.021 2.889-8.686 4.816-1.705 1.234-2.771 3.354-3.436 4.201-.17 6.171 4.324 9.421 8.762 7.474zM125.435 1.438c-4.095.065-6.382 2.482-6.946 6.456-.418 2.952-.773 5.925-.934 8.899-.22 4.058 2.666 7.443 6.35 7.52 4.296.087 6.269-2.508 6.816-6.416.414-2.954.645-5.934.984-9.164.01-3.988-2.619-7.351-6.27-7.295zM92.458 37.231c4.776 1.083 9.663-3.748 7.356-7.922-2.403-4.348-5.891-8.447-9.799-11.511-3.801-2.978-9.426 1.007-9.121 5.871.219 3.502 8.135 12.785 11.564 13.562z" fill="#fff"/><path d="M80.521 83.153c-.283-6.719-.578-12.806-.788-18.895-.343-9.947-4.263-17.724-13.593-22.047-10.354-4.797-23.322-.98-28.453 9.23-7.385 14.7-14.029 29.777-20.793 44.781-1.93 4.28-.363 8.508 3.227 9.725 4.239 1.438 7.007-.51 8.77-4.369 6.287-13.767 12.564-27.539 18.934-41.268 2.838-6.115 7.121-8.133 12.297-6.197 4.593 1.718 6.058 5.379 6.264 9.82.385 8.312.742 16.626 1.042 24.941.304 8.448 3.733 10.99 11.886 8.555 20.855-6.233 41.662-12.635 62.575-18.668 3.501-1.01 7.659-1.396 11.118-.518 5.165 1.313 7.814 6.303 7.568 11.617-.244 5.243-3.248 9.191-8.746 10.885-12.229 3.766-24.504 7.374-36.759 11.051-8.337 2.502-9.36 4.252-7.524 12.463 3.568 15.964-1.41 28.74-14.41 38.535-15.594 11.75-32.951 14.836-51.816 10.682-4.977-1.097-8.902.984-9.754 5.123-.723 3.51 2.06 6.617 6.721 7.721 22.533 5.33 43.32 1.096 62.082-12.132 15.934-11.233 23.271-26.912 21.213-46.47-.379-3.599.855-4.609 3.834-5.452 10.062-2.843 20.168-5.591 30.075-8.919 17.84-5.99 23.935-25.039 12.978-39.721-5.388-7.221-16.23-11.279-24.906-8.813-18.845 5.358-37.617 10.974-56.42 16.478-1.875.55-3.758 1.059-6.622 1.862zM143.406 35.169c-.17 6.172 4.324 9.422 8.762 7.475 3.326-1.461 6.531-3.274 9.592-5.238 3.251-2.086 4.127-5.312 2.265-8.646-1.847-3.304-4.927-4.367-8.497-2.607-2.971 1.465-6.021 2.889-8.686 4.816-1.705 1.233-2.771 3.352-3.436 4.2zM131.705 8.733c.01-3.988-2.619-7.352-6.271-7.295-4.095.065-6.382 2.482-6.946 6.456-.418 2.952-.773 5.925-.934 8.899-.22 4.058 2.666 7.443 6.35 7.52 4.296.087 6.269-2.508 6.816-6.416.415-2.954.645-5.933.985-9.164zM80.895 23.67c.219 3.501 8.135 12.784 11.563 13.562 4.776 1.083 9.663-3.748 7.356-7.922-2.403-4.348-5.891-8.447-9.799-11.511-3.8-2.978-9.425 1.007-9.12 5.871z" fill-rule="evenodd" clip-rule="evenodd" fill="#2865dd"/></svg>